<svg width="63" height="63" viewBox="0 0 63 63" fill="none" xmlns="http://www.w3.org/2000/svg">
<path d="M31.32 62.65C48.6176 62.65 62.64 48.6276 62.64 31.33C62.64 14.0325 48.6176 0.0100098 31.32 0.0100098C14.0224 0.0100098 0 14.0325 0 31.33C0 48.6276 14.0224 62.65 31.32 62.65Z" fill="#8462FF"/>
<g opacity="0.13">
<path d="M52.5999 8.33987C52.4399 8.18987 52.2799 8.03987 52.1099 7.89987L52.0399 7.82986L51.5199 7.37985L50.9699 6.92987L50.2699 6.37985C49.6899 5.93985 49.0999 5.51985 48.4999 5.12985C44.7231 8.75651 41.304 12.7382 38.2899 17.0199C32.4399 25.6299 33.0699 33.5599 25.5799 42.7099C18.0899 51.8599 10.8999 49.5199 11.1999 45.5199C11.4999 41.5199 20.2699 29.3899 30.5999 18.2899C37.5999 10.7099 42.8099 5.71986 45.3999 3.28986C44.5299 2.84986 43.6499 2.45986 42.7499 2.10986L42.0799 1.85986L41.6399 1.69986H41.5299C41.1999 1.57986 40.8599 1.46987 40.5299 1.36987L40.0999 1.23987L39.6499 1.10986C34.1437 10.1238 27.7086 18.5364 20.4499 26.2099C12.1799 34.9599 6.20991 40.7799 2.65991 44.1099C2.93991 44.7599 3.25991 45.4099 3.59991 46.0299C3.76991 46.3799 3.9599 46.7099 4.1499 47.0299L4.35992 47.3799L4.48993 47.6099C4.74993 48.0399 5.01991 48.4599 5.30991 48.8799C5.40991 49.0299 5.50991 49.1899 5.62991 49.3499L6.19992 50.1399L6.4299 50.4299C6.5999 50.6699 6.78992 50.8999 6.97992 51.1299C7.16992 51.3599 7.35992 51.5999 7.56992 51.8299C7.77992 52.0599 7.84992 52.1599 8.00992 52.3299C8.35992 52.7199 8.72991 53.0999 9.09991 53.4699L9.28992 53.6699L9.6799 54.0499L10.3799 54.6899L10.7599 55.0099L11.0499 55.2699C11.3799 55.5499 11.7099 55.8199 12.0499 56.0799C12.3899 56.3399 12.6399 56.5299 12.9299 56.7399C14.8511 58.1335 16.9244 59.3043 19.1099 60.2299C23.8399 53.7099 36.1599 36.8199 42.3099 29.2299C46.9379 23.7904 52.0377 18.7709 57.5499 14.2299C57.0399 13.4499 56.4899 12.6799 55.8999 11.9299L55.6899 11.6799C55.6288 11.5922 55.562 11.5087 55.4899 11.4299L55.0899 10.9499L54.7199 10.5299L54.4699 10.2499L53.8999 9.63986L53.4199 9.14987L52.8399 8.57986L52.5999 8.33987ZM6.48993 42.3399C6.69543 42.1236 6.96037 41.9731 7.25134 41.9072C7.54231 41.8414 7.84627 41.8633 8.12485 41.97C8.40342 42.0767 8.64412 42.2636 8.81659 42.507C8.98906 42.7504 9.08557 43.0395 9.09393 43.3377C9.10229 43.6359 9.02215 43.9299 8.86359 44.1826C8.70502 44.4353 8.47516 44.6354 8.203 44.7576C7.93085 44.8798 7.62858 44.9186 7.33438 44.8691C7.04018 44.8197 6.76722 44.6843 6.54993 44.4799C6.40503 44.3436 6.28848 44.18 6.207 43.9985C6.12552 43.817 6.08071 43.6212 6.07513 43.4223C6.06956 43.2235 6.10332 43.0255 6.1745 42.8397C6.24568 42.654 6.35289 42.4841 6.48993 42.3399ZM18.9799 54.8499C18.7096 55.1417 18.3584 55.3463 17.9712 55.4375C17.5839 55.5287 17.1783 55.5024 16.8062 55.3619C16.434 55.2214 16.1122 54.973 15.8819 54.6487C15.6516 54.3243 15.5232 53.9386 15.5132 53.541C15.5033 53.1433 15.6121 52.7517 15.8259 52.4162C16.0396 52.0807 16.3486 51.8165 16.7132 51.6575C17.0779 51.4985 17.4817 51.4519 17.873 51.5235C18.2643 51.5952 18.6253 51.7819 18.9099 52.0599C19.2829 52.4241 19.4989 52.9195 19.512 53.4406C19.5251 53.9618 19.3342 54.4674 18.9799 54.8499ZM39.8799 24.5199C39.6739 24.7395 39.4073 24.8931 39.1139 24.961C38.8205 25.0289 38.5135 25.0081 38.232 24.9012C37.9504 24.7944 37.7069 24.6064 37.5324 24.3609C37.3579 24.1155 37.2602 23.8237 37.2518 23.5227C37.2433 23.2217 37.3245 22.9249 37.485 22.6701C37.6455 22.4152 37.8781 22.2138 38.1532 22.0914C38.4283 21.969 38.7337 21.931 39.0304 21.9824C39.3271 22.0337 39.6019 22.1721 39.8199 22.3799C40.1102 22.6565 40.2794 23.0367 40.2906 23.4375C40.3018 23.8383 40.1542 24.2274 39.8799 24.5199ZM44.7199 24.7599C44.5786 24.8614 44.4066 24.9114 44.2329 24.9014C44.0591 24.8914 43.894 24.8221 43.7653 24.705C43.6365 24.5879 43.5518 24.4302 43.5253 24.2581C43.4989 24.0861 43.5322 23.9102 43.6199 23.7599C43.7622 23.6188 43.9545 23.5397 44.1549 23.5397C44.3553 23.5397 44.5476 23.6188 44.6899 23.7599C44.8171 23.8936 44.8905 24.0696 44.896 24.2541C44.9016 24.4386 44.8388 24.6187 44.7199 24.7599Z" fill="white"/>
</g>
<g opacity="0.25">
<path d="M43.2999 41.88C36.6249 48.8282 29.4779 55.3069 21.9099 61.27L22.1099 61.33L22.3999 61.41H22.4899L22.8099 61.5L23.5399 61.7C24.3499 61.9 25.1699 62.08 25.9899 62.22H26.1199C26.8899 62.35 27.6499 62.44 28.4199 62.51H28.8399C30.2374 62.6166 31.6403 62.6333 33.0399 62.56C34.4874 62.4805 35.9276 62.3001 37.3499 62.02C37.5699 62.02 37.7899 61.94 37.9999 61.9H38.0599C38.5099 61.8 38.9599 61.69 39.3999 61.56L39.8199 61.52H39.9499L40.2099 61.44C40.5199 61.36 40.8299 61.26 41.1399 61.16C41.7199 60.97 42.2999 60.76 42.8699 60.53C47.1899 55.36 51.1299 50.9 52.5499 49.95C54.1999 48.86 52.1899 52.53 49.4299 56.95C51.1088 55.7743 52.6665 54.4343 54.0799 52.95C56.0616 50.8586 57.7442 48.5029 59.0799 45.95C59.1899 45.73 59.3099 45.52 59.4099 45.3C59.5099 45.08 59.6799 44.75 59.8099 44.48C59.9399 44.21 60.0999 43.83 60.2399 43.48C60.9746 41.7433 61.5471 39.9422 61.9499 38.1C62.2746 36.6476 62.4951 35.1739 62.6099 33.69C62.6099 33.44 62.6099 33.18 62.6099 32.92C61.6099 34.24 60.1499 36.11 58.0399 38.77C51.6799 46.77 39.2399 58.2 38.6299 57.04C38.0199 55.88 43.4899 47.25 52.3999 38.41C56.5799 34.27 60.0299 30.94 62.5399 28.56C62.4899 28.01 62.4199 27.46 62.3499 26.91C62.1723 25.6418 61.9151 24.386 61.5799 23.15C61.5099 22.85 61.4199 22.55 61.3299 22.25C61.2399 21.95 61.0799 21.47 60.9499 21.07C60.7199 20.42 60.4699 19.76 60.1999 19.12V19.03C55.5487 27.3263 49.8707 35.0034 43.2999 41.88ZM34.2999 57.35C32.2999 59.48 30.1499 60.74 29.5399 60.16C28.9299 59.58 30.0899 57.39 32.1099 55.27C34.1299 53.15 36.2599 51.88 36.8599 52.46C37.4599 53.04 36.3399 55.23 34.3199 57.35H34.2999Z" fill="white"/>
</g>
<g opacity="0.13">
<path d="M31.08 0C27.6373 6.81767 23.1649 13.0643 17.82 18.52C11.08 25.41 4.42 31.3 0.200002 34.88C0.0300616 33.373 -0.0300896 31.8557 0.0200091 30.34C4.71071 27.3331 9.13072 23.9236 13.23 20.15C21.08 12.5 26.66 2.34997 24.4 2.87997C22.14 3.40997 17.76 10.62 10.24 17.78C7.12771 20.7106 3.85962 23.4713 0.450002 26.05C0.764093 24.2141 1.24268 22.4102 1.87999 20.66C1.87566 20.6402 1.87566 20.6197 1.87999 20.6C1.8744 20.5669 1.8744 20.5331 1.87999 20.5C6.1276 17.0906 10.0784 13.3271 13.69 9.25C16.41 6.25 18.49 3.89999 20.08 2.07999L21.08 1.72998C21.62 1.54998 22.16 1.37 22.71 1.22H22.82C23.8074 0.941033 24.8088 0.714031 25.82 0.539978L26.28 0.459991H26.54C26.85 0.409991 27.17 0.359987 27.49 0.329987L28.01 0.269989H28.38C29.19 0.189989 30 0.139974 30.81 0.129974H31.16L31.08 0Z" fill="white"/>
</g>
<g opacity="0.4">
<path d="M52.56 8.30011C52.41 8.15011 52.24 8.00011 52.08 7.86011L52.01 7.7901H51.96C51.79 7.6401 51.62 7.4901 51.44 7.3501C51.26 7.2101 51.11 7.07011 50.94 6.93011L50.19 6.34012C49.55 5.86012 48.9 5.4001 48.24 4.9801L47.96 4.80011L47.7 4.64011C47.46 4.48011 47.22 4.3401 46.98 4.2001C45.6003 3.39164 44.1592 2.69282 42.67 2.11011C42.3167 1.97011 41.9667 1.84012 41.62 1.72012C41.11 1.54012 40.62 1.3801 40.09 1.2301C39.56 1.0801 39.27 1.00011 38.86 0.890106C38.45 0.780106 37.86 0.660099 37.42 0.570099L36.85 0.460114L36.43 0.380096H36.22L35.38 0.250122H35.09H34.88H34.49C33.95 0.190122 33.39 0.140117 32.85 0.120117H32.77C32.32 0.120117 31.86 0.120117 31.4 0.120117H30.66C29.85 0.120117 29.04 0.120101 28.23 0.260101H27.86L27.34 0.320099L26.39 0.450104H26.13L25.68 0.530121C24.4398 0.752245 23.2142 1.04944 22.01 1.4201L22.72 1.27011H22.77L23.53 1.12012L23.99 1.0401H24.25C24.57 0.9901 24.89 0.940126 25.25 0.910126C25.61 0.880126 25.59 0.910098 25.76 0.850098H26.13C26.94 0.770098 27.75 0.730114 28.57 0.710114H28.82C29.42 0.710114 30.01 0.710114 30.61 0.710114H30.89C31.5 0.710114 32.11 0.790117 32.72 0.870117H32.92H33.22L33.8 0.950104L34.26 1.02011L34.69 1.09012L35.56 1.27011L36.68 1.52011C37.17 1.64011 37.68 1.78011 38.14 1.93011C38.6 2.08011 39.01 2.2001 39.45 2.3501L40.51 2.75012L41.05 2.96011C42.6098 3.60769 44.1147 4.3802 45.55 5.27011L45.81 5.44012L46.03 5.58011C46.47 5.86011 46.9 6.15011 47.32 6.46011C47.56 6.62011 47.8 6.8001 48.03 6.9801C48.46 7.3001 48.87 7.6301 49.29 7.9801L49.79 8.41013L50.39 8.96011L50.65 9.2001L50.85 9.40012L51.23 9.7601C51.69 10.2201 52.13 10.6901 52.55 11.1701C52.79 11.4401 53.03 11.7201 53.26 12.0001L53.39 12.1701C53.7767 12.6434 54.1467 13.1234 54.5 13.6101L54.81 14.0401C56.4404 16.3852 57.7424 18.9422 58.68 21.6401C58.68 21.6401 58.68 21.6401 58.68 21.7001C58.82 22.0901 58.94 22.4801 59.07 22.8701C59.7128 25.0305 60.1251 27.2529 60.3 29.5001C60.35 30.1801 60.38 30.8701 60.39 31.5601C60.4098 32.994 60.3296 34.4274 60.15 35.8501C59.8755 38.0151 59.3796 40.1463 58.67 42.2101C58.46 42.8501 58.21 43.4901 57.94 44.1201C57.81 44.4501 57.66 44.7701 57.52 45.1201C57.29 45.6101 57.04 46.1201 56.79 46.5901C56.2424 47.6248 55.6347 48.6265 54.97 49.5901C52.1285 53.7754 48.3123 57.2072 43.85 59.5901C43.23 59.9201 42.6 60.2301 41.96 60.5101C41.32 60.7901 40.96 60.9701 40.41 61.1701C39.86 61.3701 39.36 61.5501 38.84 61.7301L38.13 61.9501C38.53 61.8501 38.92 61.7601 39.3 61.6501L39.79 61.5101H39.89L40.05 61.4601L40.98 61.1701C42.0447 60.8243 43.0896 60.4204 44.11 59.9601C44.74 59.6701 45.37 59.3601 45.99 59.0301C51.4982 56.0773 56.0027 51.5519 58.93 46.0301C59.0213 45.8744 59.1047 45.7142 59.18 45.5501C59.3467 45.2301 59.5067 44.8968 59.66 44.5501C59.81 44.2301 59.95 43.9101 60.09 43.5501C60.8042 41.8532 61.3664 40.0964 61.77 38.3001C62.1102 36.8296 62.3376 35.3353 62.45 33.8301C62.575 32.2125 62.575 30.5877 62.45 28.9701C62.4033 28.3035 62.3334 27.6634 62.24 27.0501C62.0715 25.7811 61.8176 24.5249 61.48 23.2901C61.4 22.9601 61.31 22.6301 61.21 22.2901C61.11 21.9501 60.96 21.5001 60.83 21.1101C60.61 20.4801 60.37 19.8501 60.11 19.2301C59.0228 16.6306 57.5862 14.1915 55.84 11.9801L55.63 11.7201C55.56 11.6201 55.47 11.5201 55.39 11.4201L55.03 10.9901L54.66 10.5701C54.58 10.4801 54.5 10.3801 54.41 10.2901L53.85 9.68011L53.36 9.19012L52.82 8.52011L52.56 8.30011Z" fill="white"/>
</g>
<path d="M6.90003 12.6201C6.80751 12.8039 6.69698 12.9781 6.57005 13.14C6.34005 13.46 6.02005 13.9501 5.57005 14.5901C4.43774 16.4058 3.48651 18.3283 2.73005 20.33C1.60917 23.3352 0.961446 26.4962 0.810036 29.7C0.6199 33.6828 1.21103 37.6643 2.55006 41.42L2.37003 41.2801H2.50004L2.55006 41.42C2.82006 42.1 3.09005 42.8101 3.36005 43.5301C3.63005 44.2501 4.03005 44.93 4.36005 45.64C5.44888 47.7096 6.79267 49.6346 8.36005 51.3701L8.92005 52.0001L9.53004 52.58L10.72 53.73L11.98 54.73L12.59 55.23L13.2401 55.6801C16.2615 57.8287 19.626 59.4485 23.19 60.4701C25.5952 61.1426 28.0664 61.5517 30.56 61.6901C31.45 61.7401 32.14 61.6901 32.56 61.6901C32.7996 61.6707 33.0404 61.6707 33.28 61.6901C33.0446 61.7213 32.8075 61.738 32.57 61.7401C32.1 61.7401 31.4101 61.81 30.5201 61.79C28.0022 61.7088 25.5022 61.3363 23.07 60.6801C19.455 59.6935 16.0403 58.0826 12.98 55.92L12.32 55.4701L11.69 54.9601L10.4201 53.9601L9.20005 52.8L8.59003 52.2101L8.02006 51.57C6.41366 49.8164 5.03905 47.8638 3.93003 45.76C3.58003 45.04 3.20003 44.3401 2.93003 43.6201C2.66003 42.9001 2.38003 42.1701 2.12003 41.4701L2.30006 41.6201H2.16004V41.4901C-0.294042 34.5723 -0.184045 27.0036 2.47004 20.1601C3.26373 18.1521 4.26942 16.2346 5.47004 14.4401C5.90004 13.8101 6.25004 13.3301 6.47004 13.0201C6.69004 12.7101 6.85005 12.55 6.86005 12.55L6.90003 12.6201Z" fill="white"/>
</svg>
